<svg width="538" height="506" viewBox="0 0 538 506" fill="none" xmlns="http://www.w3.org/2000/svg">
<g filter="url(#filter0_d_468_1126)">
<rect x="107.158" y="16.9348" width="384.075" height="424.395" rx="6.40125" transform="rotate(3.86502 107.158 16.9348)" fill="white"/>
<rect x="136.705" y="104.149" width="313.365" height="14.1388" rx="6.40125" transform="rotate(3.86502 136.705 104.149)" fill="#F0F4F8"/>
<rect x="134.798" y="132.371" width="313.365" height="14.1388" rx="6.40125" transform="rotate(3.86502 134.798 132.371)" fill="#F0F4F8"/>
<rect x="132.892" y="160.584" width="313.365" height="14.1388" rx="6.40125" transform="rotate(3.86502 132.892 160.584)" fill="#F0F4F8"/>
<rect x="130.986" y="188.797" width="313.365" height="14.1388" rx="6.40125" transform="rotate(3.86502 130.986 188.797)" fill="#F0F4F8"/>
<rect x="129.08" y="217.018" width="313.365" height="14.1388" rx="6.40125" transform="rotate(3.86502 129.08 217.018)" fill="#F0F4F8"/>
<rect x="127.174" y="245.232" width="313.365" height="14.1388" rx="6.40125" transform="rotate(3.86502 127.174 245.232)" fill="#F0F4F8"/>
<rect x="125.267" y="273.453" width="313.365" height="14.1388" rx="6.40125" transform="rotate(3.86502 125.267 273.453)" fill="#F0F4F8"/>
<rect x="123.361" y="301.666" width="313.365" height="14.1388" rx="6.40125" transform="rotate(3.86502 123.361 301.666)" fill="#F0F4F8"/>
<rect x="121.455" y="329.879" width="313.365" height="14.1388" rx="6.40125" transform="rotate(3.86502 121.455 329.879)" fill="#F0F4F8"/>
<rect x="119.548" y="358.1" width="313.365" height="14.1388" rx="6.40125" transform="rotate(3.86502 119.548 358.1)" fill="#F0F4F8"/>
</g>
<g filter="url(#filter1_d_468_1126)">
<g clip-path="url(#clip0_468_1126)">
<rect x="25.3699" y="75.5232" width="384.075" height="424.395" rx="6.40125" transform="rotate(-9.58139 25.3699 75.5232)" fill="white"/>
<rect x="74.3877" y="153.476" width="313.365" height="14.1388" rx="6.40125" transform="rotate(-9.58139 74.3877 153.476)" fill="#F0F4F8"/>
<rect x="79.0958" y="181.367" width="313.365" height="14.1388" rx="6.40125" transform="rotate(-9.58139 79.0958 181.367)" fill="#F0F4F8"/>
<rect x="83.8025" y="209.25" width="313.365" height="14.1388" rx="6.40125" transform="rotate(-9.58139 83.8025 209.25)" fill="#F0F4F8"/>
<rect x="88.5093" y="237.133" width="313.365" height="14.1388" rx="6.40125" transform="rotate(-9.58139 88.5093 237.133)" fill="#F0F4F8"/>
<rect x="93.2174" y="265.024" width="313.365" height="14.1388" rx="6.40125" transform="rotate(-9.58139 93.2174 265.024)" fill="#F0F4F8"/>
<rect x="97.9242" y="292.907" width="313.365" height="14.1388" rx="6.40125" transform="rotate(-9.58139 97.9242 292.907)" fill="#F0F4F8"/>
<rect x="102.632" y="320.798" width="313.365" height="14.1388" rx="6.40125" transform="rotate(-9.58139 102.632 320.798)" fill="#F0F4F8"/>
<rect x="107.339" y="348.681" width="313.365" height="14.1388" rx="6.40125" transform="rotate(-9.58139 107.339 348.681)" fill="#F0F4F8"/>
<rect x="112.046" y="376.564" width="313.365" height="14.1388" rx="6.40125" transform="rotate(-9.58139 112.046 376.564)" fill="#F0F4F8"/>
<rect x="116.754" y="404.455" width="313.365" height="14.1388" rx="6.40125" transform="rotate(-9.58139 116.754 404.455)" fill="#F0F4F8"/>
</g>
</g>
<g filter="url(#filter2_d_468_1126)">
<rect x="77.2147" y="59.8025" width="384.075" height="424.395" rx="6.40125" fill="white"/>
<path d="M129.915 115.904V112.88H133.406C134.11 112.88 134.7 112.741 135.175 112.462C135.667 112.184 136.036 111.799 136.282 111.307C136.544 110.816 136.675 110.25 136.675 109.611C136.675 108.972 136.544 108.407 136.282 107.915C136.036 107.423 135.667 107.047 135.175 106.784C134.7 106.506 134.11 106.366 133.406 106.366H129.915V103.343H133.111C134.618 103.343 135.897 103.589 136.945 104.08C138.01 104.572 138.822 105.277 139.379 106.194C139.936 107.096 140.215 108.169 140.215 109.414V109.808C140.215 111.053 139.936 112.135 139.379 113.052C138.822 113.954 138.01 114.658 136.945 115.166C135.897 115.658 134.618 115.904 133.111 115.904H129.915ZM126.916 121.41V103.343H130.407V121.41H126.916ZM149.049 121.877C147.869 121.877 146.828 121.688 145.927 121.312C145.026 120.935 144.264 120.427 143.641 119.788C143.018 119.132 142.543 118.395 142.215 117.575C141.904 116.756 141.748 115.904 141.748 115.019V114.503C141.748 113.585 141.912 112.717 142.24 111.897C142.584 111.061 143.067 110.324 143.69 109.685C144.329 109.029 145.099 108.521 146.001 108.161C146.902 107.784 147.918 107.595 149.049 107.595C150.179 107.595 151.195 107.784 152.097 108.161C152.998 108.521 153.76 109.029 154.383 109.685C155.022 110.324 155.505 111.061 155.833 111.897C156.161 112.717 156.325 113.585 156.325 114.503V115.019C156.325 115.904 156.161 116.756 155.833 117.575C155.522 118.395 155.055 119.132 154.432 119.788C153.809 120.427 153.047 120.935 152.146 121.312C151.245 121.688 150.212 121.877 149.049 121.877ZM149.049 118.952C149.884 118.952 150.589 118.772 151.163 118.411C151.736 118.034 152.17 117.534 152.465 116.912C152.76 116.273 152.908 115.551 152.908 114.749C152.908 113.929 152.752 113.208 152.441 112.585C152.146 111.946 151.703 111.446 151.113 111.086C150.54 110.709 149.852 110.521 149.049 110.521C148.246 110.521 147.549 110.709 146.959 111.086C146.386 111.446 145.943 111.946 145.632 112.585C145.321 113.208 145.165 113.929 145.165 114.749C145.165 115.551 145.312 116.273 145.607 116.912C145.919 117.534 146.361 118.034 146.935 118.411C147.508 118.772 148.213 118.952 149.049 118.952ZM159.488 121.41V103.466H162.905V121.41H159.488ZM157.817 106.022V103.466H162.905V106.022H157.817ZM167.445 121.41V108.063H170.862V121.41H167.445ZM165.577 110.619V108.063H170.862V110.619H165.577ZM166.781 106.366L168.969 101.327H172.509L169.706 106.366H166.781ZM180.6 121.582C179.371 121.582 178.355 121.426 177.552 121.115C176.766 120.787 176.176 120.246 175.783 119.493C175.389 118.722 175.193 117.69 175.193 116.395L175.217 104.302H178.413L178.388 116.617C178.388 117.272 178.56 117.78 178.904 118.141C179.265 118.485 179.773 118.657 180.428 118.657H182.518V121.582H180.6ZM173.079 110.57V108.063H182.518V110.57H173.079ZM186.025 121.41V108.063H189.441V121.41H186.025ZM184.156 110.619V108.063H189.441V110.619H184.156ZM187.278 106.465C186.606 106.465 186.106 106.293 185.779 105.949C185.467 105.588 185.312 105.146 185.312 104.621C185.312 104.064 185.467 103.613 185.779 103.269C186.106 102.925 186.606 102.753 187.278 102.753C187.95 102.753 188.442 102.925 188.753 103.269C189.064 103.613 189.22 104.064 189.22 104.621C189.22 105.146 189.064 105.588 188.753 105.949C188.442 106.293 187.95 106.465 187.278 106.465ZM199.303 121.877C198.139 121.877 197.132 121.68 196.28 121.287C195.444 120.894 194.739 120.369 194.166 119.714C193.608 119.058 193.191 118.321 192.912 117.502C192.633 116.682 192.494 115.846 192.494 114.994V114.527C192.494 113.626 192.633 112.766 192.912 111.946C193.207 111.111 193.641 110.373 194.215 109.734C194.788 109.079 195.493 108.562 196.329 108.185C197.181 107.792 198.164 107.595 199.278 107.595C200.442 107.595 201.482 107.825 202.4 108.284C203.318 108.726 204.047 109.349 204.588 110.152C205.145 110.955 205.456 111.889 205.522 112.954H202.203C202.122 112.266 201.827 111.692 201.319 111.233C200.827 110.775 200.147 110.545 199.278 110.545C198.525 110.545 197.894 110.725 197.386 111.086C196.894 111.446 196.525 111.946 196.28 112.585C196.034 113.208 195.911 113.929 195.911 114.749C195.911 115.535 196.026 116.248 196.255 116.887C196.501 117.526 196.869 118.026 197.361 118.386C197.869 118.747 198.516 118.927 199.303 118.927C199.893 118.927 200.401 118.821 200.827 118.608C201.253 118.395 201.589 118.1 201.835 117.723C202.097 117.346 202.261 116.92 202.326 116.445H205.645C205.579 117.526 205.26 118.477 204.686 119.296C204.129 120.099 203.383 120.73 202.449 121.189C201.532 121.648 200.483 121.877 199.303 121.877ZM216.469 121.41V117.452H215.904V113.052C215.904 112.282 215.715 111.709 215.338 111.332C214.961 110.955 214.38 110.766 213.593 110.766C213.183 110.766 212.692 110.775 212.118 110.791C211.545 110.807 210.963 110.832 210.373 110.865C209.799 110.881 209.283 110.906 208.824 110.938V108.038C209.201 108.005 209.627 107.972 210.103 107.94C210.578 107.907 211.061 107.89 211.553 107.89C212.061 107.874 212.536 107.866 212.979 107.866C214.355 107.866 215.494 108.046 216.395 108.407C217.313 108.767 218.001 109.333 218.46 110.103C218.935 110.873 219.173 111.881 219.173 113.126V121.41H216.469ZM212.167 121.754C211.201 121.754 210.348 121.582 209.611 121.238C208.89 120.894 208.325 120.402 207.915 119.763C207.522 119.124 207.325 118.354 207.325 117.452C207.325 116.469 207.563 115.666 208.038 115.043C208.529 114.421 209.209 113.954 210.078 113.642C210.963 113.331 211.995 113.175 213.175 113.175H216.272V115.216H213.126C212.339 115.216 211.733 115.412 211.307 115.805C210.897 116.182 210.693 116.674 210.693 117.28C210.693 117.887 210.897 118.378 211.307 118.755C211.733 119.132 212.339 119.321 213.126 119.321C213.601 119.321 214.035 119.239 214.429 119.075C214.838 118.894 215.174 118.6 215.437 118.19C215.715 117.764 215.871 117.19 215.904 116.469L216.739 117.428C216.657 118.362 216.428 119.148 216.051 119.788C215.691 120.427 215.183 120.918 214.527 121.262C213.888 121.59 213.101 121.754 212.167 121.754ZM233.668 121.852C232.734 121.852 231.874 121.68 231.087 121.336C230.301 120.992 229.621 120.509 229.047 119.886C228.474 119.263 228.031 118.542 227.72 117.723C227.409 116.887 227.253 115.986 227.253 115.019V114.503C227.253 113.552 227.4 112.659 227.695 111.823C228.007 110.988 228.433 110.258 228.974 109.636C229.531 109.013 230.194 108.53 230.965 108.185C231.751 107.825 232.62 107.645 233.57 107.645C234.619 107.645 235.537 107.874 236.323 108.333C237.126 108.775 237.765 109.447 238.24 110.349C238.716 111.25 238.978 112.381 239.027 113.741L238.019 112.561V103.466H241.436V121.41H238.732V115.732H239.322C239.273 117.092 238.994 118.231 238.486 119.148C237.978 120.05 237.306 120.73 236.471 121.189C235.651 121.631 234.717 121.852 233.668 121.852ZM234.43 118.976C235.102 118.976 235.717 118.829 236.274 118.534C236.831 118.223 237.274 117.78 237.601 117.207C237.946 116.617 238.118 115.928 238.118 115.142V114.159C238.118 113.372 237.946 112.717 237.601 112.192C237.257 111.651 236.807 111.242 236.249 110.963C235.692 110.668 235.086 110.521 234.43 110.521C233.693 110.521 233.038 110.701 232.464 111.061C231.907 111.406 231.464 111.897 231.137 112.536C230.825 113.175 230.67 113.921 230.67 114.773C230.67 115.625 230.833 116.371 231.161 117.01C231.489 117.633 231.931 118.116 232.489 118.46C233.062 118.804 233.709 118.976 234.43 118.976ZM251.298 121.877C250.151 121.877 249.143 121.68 248.275 121.287C247.423 120.894 246.71 120.369 246.136 119.714C245.579 119.042 245.153 118.296 244.858 117.477C244.58 116.658 244.44 115.822 244.44 114.97V114.503C244.44 113.618 244.58 112.766 244.858 111.946C245.153 111.111 245.579 110.373 246.136 109.734C246.71 109.079 247.414 108.562 248.25 108.185C249.086 107.792 250.053 107.595 251.151 107.595C252.593 107.595 253.797 107.915 254.764 108.554C255.747 109.177 256.485 110.004 256.976 111.037C257.468 112.053 257.714 113.151 257.714 114.331V115.56H245.89V113.47H255.575L254.518 114.503C254.518 113.651 254.395 112.921 254.15 112.315C253.904 111.709 253.527 111.242 253.019 110.914C252.527 110.586 251.905 110.422 251.151 110.422C250.397 110.422 249.758 110.594 249.233 110.938C248.709 111.283 248.308 111.782 248.029 112.438C247.767 113.077 247.636 113.847 247.636 114.749C247.636 115.584 247.767 116.33 248.029 116.985C248.291 117.624 248.693 118.132 249.233 118.509C249.774 118.87 250.463 119.05 251.298 119.05C252.134 119.05 252.814 118.886 253.338 118.559C253.863 118.214 254.199 117.797 254.346 117.305H257.493C257.296 118.223 256.919 119.026 256.362 119.714C255.805 120.402 255.092 120.935 254.223 121.312C253.371 121.688 252.396 121.877 251.298 121.877ZM269.142 115.904V112.88H272.633C273.338 112.88 273.927 112.741 274.403 112.462C274.894 112.184 275.263 111.799 275.509 111.307C275.771 110.816 275.902 110.25 275.902 109.611C275.902 108.972 275.771 108.407 275.509 107.915C275.263 107.423 274.894 107.047 274.403 106.784C273.927 106.506 273.338 106.366 272.633 106.366H269.142V103.343H272.338C273.846 103.343 275.124 103.589 276.172 104.08C277.238 104.572 278.049 105.277 278.606 106.194C279.163 107.096 279.442 108.169 279.442 109.414V109.808C279.442 111.053 279.163 112.135 278.606 113.052C278.049 113.954 277.238 114.658 276.172 115.166C275.124 115.658 273.846 115.904 272.338 115.904H269.142ZM266.144 121.41V103.343H269.634V121.41H266.144ZM282.148 121.41V108.063H284.852V113.716H284.778C284.778 111.799 285.188 110.349 286.008 109.365C286.827 108.382 288.031 107.89 289.621 107.89H290.113V110.865H289.178C288.031 110.865 287.138 111.176 286.499 111.799C285.876 112.405 285.565 113.29 285.565 114.454V121.41H282.148ZM293.037 121.41V108.063H296.454V121.41H293.037ZM291.169 110.619V108.063H296.454V110.619H291.169ZM294.291 106.465C293.619 106.465 293.119 106.293 292.792 105.949C292.48 105.588 292.325 105.146 292.325 104.621C292.325 104.064 292.48 103.613 292.792 103.269C293.119 102.925 293.619 102.753 294.291 102.753C294.963 102.753 295.455 102.925 295.766 103.269C296.077 103.613 296.233 104.064 296.233 104.621C296.233 105.146 296.077 105.588 295.766 105.949C295.455 106.293 294.963 106.465 294.291 106.465ZM303.071 121.41L298.892 108.063H302.408L306.414 121.41H303.071ZM304.079 121.41V118.608H307.692V121.41H304.079ZM305.431 121.41L308.872 108.063H312.166L308.553 121.41H305.431ZM322.666 121.41V117.452H322.1V113.052C322.1 112.282 321.912 111.709 321.535 111.332C321.158 110.955 320.576 110.766 319.79 110.766C319.38 110.766 318.888 110.775 318.315 110.791C317.741 110.807 317.16 110.832 316.57 110.865C315.996 110.881 315.48 110.906 315.021 110.938V108.038C315.398 108.005 315.824 107.972 316.299 107.94C316.775 107.907 317.258 107.89 317.75 107.89C318.258 107.874 318.733 107.866 319.175 107.866C320.552 107.866 321.691 108.046 322.592 108.407C323.51 108.767 324.198 109.333 324.657 110.103C325.132 110.873 325.37 111.881 325.37 113.126V121.41H322.666ZM318.364 121.754C317.397 121.754 316.545 121.582 315.808 121.238C315.087 120.894 314.521 120.402 314.112 119.763C313.718 119.124 313.522 118.354 313.522 117.452C313.522 116.469 313.759 115.666 314.235 115.043C314.726 114.421 315.406 113.954 316.275 113.642C317.16 113.331 318.192 113.175 319.372 113.175H322.469V115.216H319.323C318.536 115.216 317.93 115.412 317.504 115.805C317.094 116.182 316.889 116.674 316.889 117.28C316.889 117.887 317.094 118.378 317.504 118.755C317.93 119.132 318.536 119.321 319.323 119.321C319.798 119.321 320.232 119.239 320.626 119.075C321.035 118.894 321.371 118.6 321.633 118.19C321.912 117.764 322.068 117.19 322.1 116.469L322.936 117.428C322.854 118.362 322.625 119.148 322.248 119.788C321.887 120.427 321.379 120.918 320.724 121.262C320.085 121.59 319.298 121.754 318.364 121.754ZM334.953 121.877C333.79 121.877 332.782 121.68 331.93 121.287C331.094 120.894 330.39 120.369 329.816 119.714C329.259 119.058 328.841 118.321 328.562 117.502C328.284 116.682 328.145 115.846 328.145 114.994V114.527C328.145 113.626 328.284 112.766 328.562 111.946C328.857 111.111 329.292 110.373 329.865 109.734C330.439 109.079 331.143 108.562 331.979 108.185C332.831 107.792 333.815 107.595 334.929 107.595C336.092 107.595 337.133 107.825 338.051 108.284C338.968 108.726 339.698 109.349 340.238 110.152C340.795 110.955 341.107 111.889 341.172 112.954H337.854C337.772 112.266 337.477 111.692 336.969 111.233C336.477 110.775 335.797 110.545 334.929 110.545C334.175 110.545 333.544 110.725 333.036 111.086C332.545 111.446 332.176 111.946 331.93 112.585C331.684 113.208 331.561 113.929 331.561 114.749C331.561 115.535 331.676 116.248 331.905 116.887C332.151 117.526 332.52 118.026 333.012 118.386C333.52 118.747 334.167 118.927 334.953 118.927C335.543 118.927 336.051 118.821 336.477 118.608C336.904 118.395 337.239 118.1 337.485 117.723C337.747 117.346 337.911 116.92 337.977 116.445H341.295C341.23 117.526 340.91 118.477 340.337 119.296C339.779 120.099 339.034 120.73 338.1 121.189C337.182 121.648 336.133 121.877 334.953 121.877ZM344.672 121.41V108.063H348.088V121.41H344.672ZM342.803 110.619V108.063H348.088V110.619H342.803ZM345.925 106.465C345.253 106.465 344.753 106.293 344.426 105.949C344.114 105.588 343.959 105.146 343.959 104.621C343.959 104.064 344.114 103.613 344.426 103.269C344.753 102.925 345.253 102.753 345.925 102.753C346.597 102.753 347.089 102.925 347.4 103.269C347.711 103.613 347.867 104.064 347.867 104.621C347.867 105.146 347.711 105.588 347.4 105.949C347.089 106.293 346.597 106.465 345.925 106.465ZM357.557 121.852C356.623 121.852 355.762 121.68 354.976 121.336C354.189 120.992 353.509 120.509 352.935 119.886C352.362 119.263 351.919 118.542 351.608 117.723C351.297 116.887 351.141 115.986 351.141 115.019V114.503C351.141 113.552 351.289 112.659 351.584 111.823C351.895 110.988 352.321 110.258 352.862 109.636C353.419 109.013 354.083 108.53 354.853 108.185C355.639 107.825 356.508 107.645 357.458 107.645C358.507 107.645 359.425 107.874 360.211 108.333C361.014 108.775 361.653 109.447 362.129 110.349C362.604 111.25 362.866 112.381 362.915 113.741L361.907 112.561V103.466H365.324V121.41H362.62V115.732H363.21C363.161 117.092 362.882 118.231 362.374 119.148C361.866 120.05 361.195 120.73 360.359 121.189C359.54 121.631 358.605 121.852 357.557 121.852ZM358.319 118.976C358.991 118.976 359.605 118.829 360.162 118.534C360.719 118.223 361.162 117.78 361.49 117.207C361.834 116.617 362.006 115.928 362.006 115.142V114.159C362.006 113.372 361.834 112.717 361.49 112.192C361.145 111.651 360.695 111.242 360.138 110.963C359.58 110.668 358.974 110.521 358.319 110.521C357.581 110.521 356.926 110.701 356.352 111.061C355.795 111.406 355.353 111.897 355.025 112.536C354.713 113.175 354.558 113.921 354.558 114.773C354.558 115.625 354.722 116.371 355.049 117.01C355.377 117.633 355.82 118.116 356.377 118.46C356.95 118.804 357.598 118.976 358.319 118.976ZM377.3 121.41V117.452H376.735V113.052C376.735 112.282 376.547 111.709 376.17 111.332C375.793 110.955 375.211 110.766 374.424 110.766C374.015 110.766 373.523 110.775 372.95 110.791C372.376 110.807 371.794 110.832 371.204 110.865C370.631 110.881 370.115 110.906 369.656 110.938V108.038C370.033 108.005 370.459 107.972 370.934 107.94C371.409 107.907 371.893 107.89 372.384 107.89C372.892 107.874 373.367 107.866 373.81 107.866C375.186 107.866 376.325 108.046 377.227 108.407C378.144 108.767 378.833 109.333 379.291 110.103C379.767 110.873 380.004 111.881 380.004 113.126V121.41H377.3ZM372.999 121.754C372.032 121.754 371.18 121.582 370.442 121.238C369.721 120.894 369.156 120.402 368.746 119.763C368.353 119.124 368.156 118.354 368.156 117.452C368.156 116.469 368.394 115.666 368.869 115.043C369.361 114.421 370.041 113.954 370.909 113.642C371.794 113.331 372.827 113.175 374.007 113.175H377.104V115.216H373.957C373.171 115.216 372.565 115.412 372.138 115.805C371.729 116.182 371.524 116.674 371.524 117.28C371.524 117.887 371.729 118.378 372.138 118.755C372.565 119.132 373.171 119.321 373.957 119.321C374.433 119.321 374.867 119.239 375.26 119.075C375.67 118.894 376.006 118.6 376.268 118.19C376.547 117.764 376.702 117.19 376.735 116.469L377.571 117.428C377.489 118.362 377.259 119.148 376.883 119.788C376.522 120.427 376.014 120.918 375.359 121.262C374.719 121.59 373.933 121.754 372.999 121.754ZM389.195 121.852C388.261 121.852 387.4 121.68 386.614 121.336C385.827 120.992 385.147 120.509 384.574 119.886C384 119.263 383.558 118.542 383.246 117.723C382.935 116.887 382.779 115.986 382.779 115.019V114.503C382.779 113.552 382.927 112.659 383.222 111.823C383.533 110.988 383.959 110.258 384.5 109.636C385.057 109.013 385.721 108.53 386.491 108.185C387.278 107.825 388.146 107.645 389.097 107.645C390.145 107.645 391.063 107.874 391.85 108.333C392.653 108.775 393.292 109.447 393.767 110.349C394.242 111.25 394.504 112.381 394.553 113.741L393.546 112.561V103.466H396.962V121.41H394.259V115.732H394.848C394.799 117.092 394.521 118.231 394.013 119.148C393.505 120.05 392.833 120.73 391.997 121.189C391.178 121.631 390.244 121.852 389.195 121.852ZM389.957 118.976C390.629 118.976 391.243 118.829 391.8 118.534C392.358 118.223 392.8 117.78 393.128 117.207C393.472 116.617 393.644 115.928 393.644 115.142V114.159C393.644 113.372 393.472 112.717 393.128 112.192C392.784 111.651 392.333 111.242 391.776 110.963C391.219 110.668 390.612 110.521 389.957 110.521C389.219 110.521 388.564 110.701 387.99 111.061C387.433 111.406 386.991 111.897 386.663 112.536C386.352 113.175 386.196 113.921 386.196 114.773C386.196 115.625 386.36 116.371 386.688 117.01C387.015 117.633 387.458 118.116 388.015 118.46C388.589 118.804 389.236 118.976 389.957 118.976ZM406.825 121.877C405.678 121.877 404.67 121.68 403.801 121.287C402.949 120.894 402.236 120.369 401.663 119.714C401.105 119.042 400.679 118.296 400.384 117.477C400.106 116.658 399.967 115.822 399.967 114.97V114.503C399.967 113.618 400.106 112.766 400.384 111.946C400.679 111.111 401.105 110.373 401.663 109.734C402.236 109.079 402.941 108.562 403.777 108.185C404.612 107.792 405.579 107.595 406.677 107.595C408.119 107.595 409.324 107.915 410.291 108.554C411.274 109.177 412.011 110.004 412.503 111.037C412.994 112.053 413.24 113.151 413.24 114.331V115.56H401.417V113.47H411.102L410.045 114.503C410.045 113.651 409.922 112.921 409.676 112.315C409.43 111.709 409.053 111.242 408.545 110.914C408.054 110.586 407.431 110.422 406.677 110.422C405.923 110.422 405.284 110.594 404.76 110.938C404.235 111.283 403.834 111.782 403.555 112.438C403.293 113.077 403.162 113.847 403.162 114.749C403.162 115.584 403.293 116.33 403.555 116.985C403.818 117.624 404.219 118.132 404.76 118.509C405.301 118.87 405.989 119.05 406.825 119.05C407.66 119.05 408.34 118.886 408.865 118.559C409.389 118.214 409.725 117.797 409.873 117.305H413.019C412.822 118.223 412.445 119.026 411.888 119.714C411.331 120.402 410.618 120.935 409.75 121.312C408.898 121.688 407.923 121.877 406.825 121.877Z" fill="#262B40"/>
<rect x="112.574" y="144.827" width="313.365" height="14.1388" rx="6.40125" fill="#F0F4F8"/>
<rect x="112.574" y="173.113" width="313.365" height="14.1388" rx="6.40125" fill="#F0F4F8"/>
<rect x="112.574" y="201.39" width="313.365" height="14.1388" rx="6.40125" fill="#F0F4F8"/>
<rect x="112.574" y="229.668" width="313.365" height="14.1388" rx="6.40125" fill="#F0F4F8"/>
<rect x="112.574" y="257.953" width="313.365" height="14.1388" rx="6.40125" fill="#F0F4F8"/>
<rect x="112.574" y="286.231" width="313.365" height="14.1388" rx="6.40125" fill="#F0F4F8"/>
<rect x="112.574" y="314.516" width="313.365" height="14.1388" rx="6.40125" fill="#F0F4F8"/>
<rect x="112.574" y="342.794" width="313.365" height="14.1388" rx="6.40125" fill="#F0F4F8"/>
<rect x="112.574" y="371.072" width="313.365" height="14.1388" rx="6.40125" fill="#F0F4F8"/>
<rect x="112.574" y="399.357" width="313.365" height="14.1388" rx="6.40125" fill="#F0F4F8"/>
</g>
<defs>
<filter id="filter0_d_468_1126" x="66.5487" y="4.93247" width="435.813" height="473.324" filterUnits="userSpaceOnUse" color-interpolation-filters="sRGB">
<feFlood flood-opacity="0" result="BackgroundImageFix"/>
<feColorMatrix in="SourceAlpha" type="matrix" values="0 0 0 0 0 0 0 0 0 0 0 0 0 0 0 0 0 0 127 0" result="hardAlpha"/>
<feMorphology radius="4.00078" operator="erode" in="SourceAlpha" result="effect1_dropShadow_468_1126"/>
<feOffset/>
<feGaussianBlur stdDeviation="8.00156"/>
<feComposite in2="hardAlpha" operator="out"/>
<feColorMatrix type="matrix" values="0 0 0 0 0 0 0 0 0 0 0 0 0 0 0 0 0 0 0.1 0"/>
<feBlend mode="normal" in2="BackgroundImageFix" result="effect1_dropShadow_468_1126"/>
<feBlend mode="normal" in="SourceGraphic" in2="effect1_dropShadow_468_1126" result="shape"/>
</filter>
<filter id="filter1_d_468_1126" x="13.3675" y="-0.407864" width="473.362" height="506.408" filterUnits="userSpaceOnUse" color-interpolation-filters="sRGB">
<feFlood flood-opacity="0" result="BackgroundImageFix"/>
<feColorMatrix in="SourceAlpha" type="matrix" values="0 0 0 0 0 0 0 0 0 0 0 0 0 0 0 0 0 0 127 0" result="hardAlpha"/>
<feMorphology radius="4.00078" operator="erode" in="SourceAlpha" result="effect1_dropShadow_468_1126"/>
<feOffset/>
<feGaussianBlur stdDeviation="8.00156"/>
<feComposite in2="hardAlpha" operator="out"/>
<feColorMatrix type="matrix" values="0 0 0 0 0 0 0 0 0 0 0 0 0 0 0 0 0 0 0.1 0"/>
<feBlend mode="normal" in2="BackgroundImageFix" result="effect1_dropShadow_468_1126"/>
<feBlend mode="normal" in="SourceGraphic" in2="effect1_dropShadow_468_1126" result="shape"/>
</filter>
<filter id="filter2_d_468_1126" x="65.2124" y="47.8001" width="408.08" height="448.4" filterUnits="userSpaceOnUse" color-interpolation-filters="sRGB">
<feFlood flood-opacity="0" result="BackgroundImageFix"/>
<feColorMatrix in="SourceAlpha" type="matrix" values="0 0 0 0 0 0 0 0 0 0 0 0 0 0 0 0 0 0 127 0" result="hardAlpha"/>
<feMorphology radius="4.00078" operator="erode" in="SourceAlpha" result="effect1_dropShadow_468_1126"/>
<feOffset/>
<feGaussianBlur stdDeviation="8.00156"/>
<feComposite in2="hardAlpha" operator="out"/>
<feColorMatrix type="matrix" values="0 0 0 0 0 0 0 0 0 0 0 0 0 0 0 0 0 0 0.1 0"/>
<feBlend mode="normal" in2="BackgroundImageFix" result="effect1_dropShadow_468_1126"/>
<feBlend mode="normal" in="SourceGraphic" in2="effect1_dropShadow_468_1126" result="shape"/>
</filter>
<clipPath id="clip0_468_1126">
<rect x="25.3699" y="75.5232" width="384.075" height="424.395" rx="6.40125" transform="rotate(-9.58139 25.3699 75.5232)" fill="white"/>
</clipPath>
</defs>
</svg>
